<?xml version="1.0" encoding="UTF-8" standalone="no"?>
<!DOCTYPE svg PUBLIC "-//W3C//DTD SVG 1.1//EN"
 "http://www.w3.org/Graphics/SVG/1.1/DTD/svg11.dtd">
<!-- Generated by graphviz version 12.2.1 (0)
 -->
<!-- Title: structs Pages: 1 -->
<svg width="493pt" height="156pt"
 viewBox="0.00 0.00 493.25 155.50" xmlns="http://www.w3.org/2000/svg" xmlns:xlink="http://www.w3.org/1999/xlink">
<g id="graph0" class="graph" transform="scale(1 1) rotate(0) translate(4 151.5)">
<title>structs</title>
<polygon fill="white" stroke="none" points="-4,4 -4,-151.5 489.25,-151.5 489.25,4 -4,4"/>
<!-- document -->
<g id="node1" class="node">
<title>document</title>
<polygon fill="none" stroke="black" points="392.5,-74.38 392.5,-97.62 477.25,-97.62 477.25,-74.38 392.5,-74.38"/>
<text text-anchor="start" x="395.5" y="-82.33" font-family="Times,serif" font-weight="bold" font-size="14.00">document</text>
<polygon fill="none" stroke="black" points="392.5,-51.12 392.5,-74.38 416.5,-74.38 416.5,-51.12 392.5,-51.12"/>
<text text-anchor="start" x="395.88" y="-58.08" font-family="Times,serif" font-size="14.00">🔑</text>
<polygon fill="none" stroke="black" points="416.5,-51.12 416.5,-74.38 477.25,-74.38 477.25,-51.12 416.5,-51.12"/>
<text text-anchor="start" x="424.38" y="-58.08" font-family="Times,serif" font-size="14.00">doc_id</text>
<polygon fill="none" stroke="black" points="392.5,-27.88 392.5,-51.12 416.5,-51.12 416.5,-27.88 392.5,-27.88"/>
<text text-anchor="start" x="402.25" y="-34.83" font-family="Times,serif" font-size="14.00"> </text>
<polygon fill="none" stroke="black" points="416.5,-27.88 416.5,-51.12 477.25,-51.12 477.25,-27.88 416.5,-27.88"/>
<text text-anchor="start" x="419.88" y="-34.83" font-family="Times,serif" font-size="14.00">content</text>
</g>
<!-- url -->
<g id="node2" class="node">
<title>url</title>
<polygon fill="none" stroke="black" points="220.5,-97.62 220.5,-120.88 340.5,-120.88 340.5,-97.62 220.5,-97.62"/>
<text text-anchor="start" x="268.88" y="-105.58" font-family="Times,serif" font-weight="bold" font-size="14.00">url</text>
<polygon fill="none" stroke="black" points="220.5,-74.38 220.5,-97.62 243.75,-97.62 243.75,-74.38 220.5,-74.38"/>
<text text-anchor="start" x="223.5" y="-81.33" font-family="Times,serif" font-size="14.00">🔑</text>
<polygon fill="none" stroke="black" points="243.75,-74.38 243.75,-97.62 340.5,-97.62 340.5,-74.38 243.75,-74.38"/>
<text text-anchor="start" x="271.88" y="-81.33" font-family="Times,serif" font-size="14.00">url_id</text>
<polygon fill="none" stroke="black" points="220.5,-51.12 220.5,-74.38 243.75,-74.38 243.75,-51.12 220.5,-51.12"/>
<text text-anchor="start" x="229.88" y="-58.08" font-family="Times,serif" font-size="14.00"> </text>
<polygon fill="none" stroke="black" points="243.75,-51.12 243.75,-74.38 340.5,-74.38 340.5,-51.12 243.75,-51.12"/>
<text text-anchor="start" x="269.62" y="-58.08" font-family="Times,serif" font-size="14.00">doc_id</text>
<polygon fill="none" stroke="black" points="220.5,-27.88 220.5,-51.12 243.75,-51.12 243.75,-27.88 220.5,-27.88"/>
<text text-anchor="start" x="229.88" y="-34.83" font-family="Times,serif" font-size="14.00"> </text>
<polygon fill="none" stroke="black" points="243.75,-27.88 243.75,-51.12 340.5,-51.12 340.5,-27.88 243.75,-27.88"/>
<text text-anchor="start" x="246.75" y="-34.83" font-family="Times,serif" font-size="14.00">index_in_doc</text>
<polygon fill="none" stroke="black" points="220.5,-4.62 220.5,-27.88 243.75,-27.88 243.75,-4.62 220.5,-4.62"/>
<text text-anchor="start" x="229.88" y="-11.57" font-family="Times,serif" font-size="14.00"> </text>
<polygon fill="none" stroke="black" points="243.75,-4.62 243.75,-27.88 340.5,-27.88 340.5,-4.62 243.75,-4.62"/>
<text text-anchor="start" x="282" y="-11.57" font-family="Times,serif" font-size="14.00">url</text>
</g>
<!-- url&#45;&gt;document -->
<g id="edge2" class="edge">
<title>url:e&#45;&gt;document:w</title>
<path fill="none" stroke="black" d="M341.5,-62.75C359.38,-62.75 366.47,-62.75 380.14,-62.75"/>
<polygon fill="black" stroke="black" points="379.99,-66.25 389.99,-62.75 379.99,-59.25 379.99,-66.25"/>
</g>
<!-- visit -->
<g id="node3" class="node">
<title>visit</title>
<polygon fill="none" stroke="black" points="8,-120.25 8,-143.5 168.5,-143.5 168.5,-120.25 8,-120.25"/>
<text text-anchor="start" x="71.38" y="-128.2" font-family="Times,serif" font-weight="bold" font-size="14.00">visit</text>
<polygon fill="none" stroke="black" points="8,-97 8,-120.25 31.25,-120.25 31.25,-97 8,-97"/>
<text text-anchor="start" x="11" y="-103.95" font-family="Times,serif" font-size="14.00">🔑</text>
<polygon fill="none" stroke="black" points="31.25,-97 31.25,-120.25 168.5,-120.25 168.5,-97 31.25,-97"/>
<text text-anchor="start" x="74.38" y="-103.95" font-family="Times,serif" font-size="14.00">visit_id</text>
<polygon fill="none" stroke="black" points="8,-73.75 8,-97 31.25,-97 31.25,-73.75 8,-73.75"/>
<text text-anchor="start" x="17.38" y="-80.7" font-family="Times,serif" font-size="14.00"> </text>
<polygon fill="none" stroke="black" points="31.25,-73.75 31.25,-97 168.5,-97 168.5,-73.75 31.25,-73.75"/>
<text text-anchor="start" x="79.62" y="-80.7" font-family="Times,serif" font-size="14.00">url_id</text>
<polygon fill="none" stroke="black" points="8,-50.5 8,-73.75 31.25,-73.75 31.25,-50.5 8,-50.5"/>
<text text-anchor="start" x="17.38" y="-57.45" font-family="Times,serif" font-size="14.00"> </text>
<polygon fill="none" stroke="black" points="31.25,-50.5 31.25,-73.75 168.5,-73.75 168.5,-50.5 31.25,-50.5"/>
<text text-anchor="start" x="42.88" y="-57.45" font-family="Times,serif" font-size="14.00">visit_timestamp</text>
<polygon fill="none" stroke="black" points="8,-27.25 8,-50.5 31.25,-50.5 31.25,-27.25 8,-27.25"/>
<text text-anchor="start" x="17.38" y="-34.2" font-family="Times,serif" font-size="14.00"> </text>
<polygon fill="none" stroke="black" points="31.25,-27.25 31.25,-50.5 168.5,-50.5 168.5,-27.25 31.25,-27.25"/>
<text text-anchor="start" x="47" y="-34.2" font-family="Times,serif" font-size="14.00">visitor_ip_addr</text>
<polygon fill="none" stroke="black" points="8,-4 8,-27.25 31.25,-27.25 31.25,-4 8,-4"/>
<text text-anchor="start" x="17.38" y="-10.95" font-family="Times,serif" font-size="14.00"> </text>
<polygon fill="none" stroke="black" points="31.25,-4 31.25,-27.25 168.5,-27.25 168.5,-4 31.25,-4"/>
<text text-anchor="start" x="34.25" y="-10.95" font-family="Times,serif" font-size="14.00">visitor_user_agent</text>
</g>
<!-- visit&#45;&gt;url -->
<g id="edge1" class="edge">
<title>visit:e&#45;&gt;url:w</title>
<path fill="none" stroke="black" d="M169.5,-85.38C187.38,-85.38 194.47,-85.78 208.14,-85.94"/>
<polygon fill="black" stroke="black" points="207.97,-89.44 217.99,-85.99 208.01,-82.44 207.97,-89.44"/>
</g>
</g>
</svg>
